<?xml version="1.0" encoding="UTF-8" standalone="no"?>
<!DOCTYPE svg PUBLIC "-//W3C//DTD SVG 20010904//EN"
              "http://www.w3.org/TR/2001/REC-SVG-20010904/DTD/svg10.dtd">

<svg xmlns="http://www.w3.org/2000/svg"
     width="180.663mm" height="92.096mm"
     viewBox="0 0 1024 522">
  <path id="Selection"
        fill="white" stroke="white" stroke-width="1"
        d="M 75.00,42.00
           C 75.00,42.00 954.00,42.00 954.00,42.00
             954.00,42.00 954.00,466.00 954.00,466.00
             898.90,455.96 842.68,449.40 787.00,443.83
             787.00,443.83 706.00,436.91 706.00,436.91
             706.00,436.91 678.00,435.00 678.00,435.00
             678.00,435.00 668.00,434.04 668.00,434.04
             668.00,434.04 660.00,434.04 660.00,434.04
             660.00,434.04 640.00,433.00 640.00,433.00
             640.00,433.00 624.00,431.96 624.00,431.96
             624.00,431.96 611.00,431.96 611.00,431.96
             611.00,431.96 600.00,431.00 600.00,431.00
             600.00,431.00 580.00,431.00 580.00,431.00
             580.00,431.00 563.00,430.00 563.00,430.00
             563.00,430.00 464.00,430.00 464.00,430.00
             464.00,430.00 450.00,431.00 450.00,431.00
             450.00,431.00 430.00,431.00 430.00,431.00
             430.00,431.00 416.00,432.00 416.00,432.00
             416.00,432.00 404.00,432.00 404.00,432.00
             404.00,432.00 384.00,433.00 384.00,433.00
             384.00,433.00 369.00,434.00 369.00,434.00
             369.00,434.00 338.00,435.91 338.00,435.91
             338.00,435.91 263.00,441.83 263.00,441.83
             218.20,446.17 173.59,451.30 129.00,457.73
             129.00,457.73 75.00,466.00 75.00,466.00
             75.00,466.00 75.00,42.00 75.00,42.00 Z
           M 927.00,69.00
           C 927.00,69.00 102.00,69.00 102.00,69.00
             102.00,69.00 102.00,434.00 102.00,434.00
             102.00,434.00 174.00,424.28 174.00,424.28
             218.86,418.69 263.95,414.01 309.00,410.91
             309.00,410.91 371.00,407.00 371.00,407.00
             371.00,407.00 381.00,406.04 381.00,406.04
             381.00,406.04 392.00,406.04 392.00,406.04
             392.00,406.04 407.00,404.96 407.00,404.96
             407.00,404.96 421.00,404.96 421.00,404.96
             421.00,404.96 432.00,404.00 432.00,404.00
             432.00,404.00 455.00,404.00 455.00,404.00
             455.00,404.00 472.00,403.00 472.00,403.00
             472.00,403.00 560.00,403.00 560.00,403.00
             560.00,403.00 575.00,404.00 575.00,404.00
             575.00,404.00 596.00,404.00 596.00,404.00
             596.00,404.00 608.00,404.96 608.00,404.96
             608.00,404.96 623.00,404.96 623.00,404.96
             623.00,404.96 640.00,406.00 640.00,406.00
             640.00,406.00 661.00,407.00 661.00,407.00
             661.00,407.00 675.00,408.00 675.00,408.00
             675.00,408.00 684.00,408.00 684.00,408.00
             684.00,408.00 706.00,409.91 706.00,409.91
             752.78,413.11 799.39,417.58 846.00,423.15
             846.00,423.15 899.00,430.13 899.00,430.13
             899.00,430.13 927.00,434.00 927.00,434.00
             927.00,434.00 927.00,69.00 927.00,69.00 Z
           M 437.00,215.00
           C 437.00,215.00 437.00,287.00 437.00,287.00
             437.00,289.05 437.11,292.10 436.40,293.99
             434.66,298.60 425.28,304.29 421.00,306.94
             405.18,316.70 382.67,323.91 364.00,324.00
             342.27,324.10 326.52,322.41 307.00,311.69
             286.26,300.30 270.66,279.96 264.89,257.00
             261.45,243.29 261.84,234.85 262.00,221.00
             262.23,201.86 272.56,179.12 285.17,165.00
             302.24,145.89 328.34,134.04 354.00,134.00
             354.00,134.00 365.00,134.00 365.00,134.00
             382.11,134.03 401.42,139.06 416.00,148.06
             419.02,149.93 428.56,155.74 429.10,159.17
             429.55,161.98 425.76,165.97 424.08,168.00
             419.12,173.99 409.45,186.75 404.00,191.00
             388.16,177.40 367.12,168.05 346.00,173.48
             308.44,183.13 293.25,230.74 314.36,262.00
             328.09,282.34 350.49,289.76 374.00,285.00
             379.56,283.87 393.08,279.74 395.98,274.79
             397.21,272.69 397.00,269.39 397.00,267.00
             397.00,267.00 397.00,250.00 397.00,250.00
             397.00,250.00 356.00,250.00 356.00,250.00
             356.00,250.00 356.00,215.00 356.00,215.00
             356.00,215.00 437.00,215.00 437.00,215.00 Z
           M 173.00,137.00
           C 173.00,137.00 214.00,137.00 214.00,137.00
             214.00,137.00 214.00,321.00 214.00,321.00
             214.00,321.00 173.00,321.00 173.00,321.00
             173.00,321.00 173.00,137.00 173.00,137.00 Z
           M 485.00,137.00
           C 485.00,137.00 541.00,137.00 541.00,137.00
             564.76,137.00 582.81,136.44 605.00,147.26
             666.90,177.43 672.35,267.23 615.00,304.92
             589.94,321.39 567.46,321.00 539.00,321.00
             539.00,321.00 485.00,321.00 485.00,321.00
             485.00,321.00 485.00,137.00 485.00,137.00 Z
           M 700.00,137.00
           C 700.00,137.00 770.00,137.00 770.00,137.00
             786.79,137.00 803.18,136.04 819.00,143.04
             832.55,149.04 843.54,160.98 845.85,176.00
             845.85,176.00 845.85,189.00 845.85,189.00
             845.93,194.79 844.61,200.79 842.01,206.00
             837.41,215.20 831.74,219.00 824.00,225.00
             834.82,229.34 844.21,234.75 850.53,245.00
             856.65,254.90 856.13,263.89 856.00,275.00
             855.81,290.74 846.75,304.29 833.00,311.68
             814.92,321.40 794.81,321.00 775.00,321.00
             775.00,321.00 700.00,321.00 700.00,321.00
             700.00,321.00 700.00,137.00 700.00,137.00 Z
           M 740.00,211.00
           C 740.00,211.00 771.00,211.00 771.00,211.00
             779.13,211.00 786.28,211.45 794.00,208.12
             806.20,202.86 808.52,188.27 800.78,180.19
             796.34,175.55 790.08,174.30 784.00,173.21
             784.00,173.21 740.00,173.21 740.00,173.21
             740.00,173.21 740.00,211.00 740.00,211.00 Z
           M 526.00,284.00
           C 544.32,284.00 568.67,285.99 585.00,277.10
             619.81,258.16 619.12,205.15 591.00,184.78
             572.32,171.25 547.83,174.00 526.00,174.00
             526.00,174.00 526.00,284.00 526.00,284.00 Z
           M 740.00,285.00
           C 740.00,285.00 786.00,285.00 786.00,285.00
             794.01,284.90 806.01,283.25 811.44,276.82
             814.25,273.50 814.90,270.20 814.98,266.00
             815.18,256.85 811.70,251.47 803.00,248.07
             797.73,246.01 787.74,245.03 782.00,245.00
             782.00,245.00 740.00,245.00 740.00,245.00
             740.00,245.00 740.00,285.00 740.00,285.00 Z" />
</svg>
